<svg width="256" height="256" viewBox="0 0 256 256" fill="none" xmlns="http://www.w3.org/2000/svg">
<path d="M120.5 66H130.25V75.75H120.5V66Z" fill="#E0E0E0"/>
<path d="M104 69H117.5V82.5H104V69Z" fill="#E0E0E0"/>
<path d="M85 87.25H106.75V109H85V87.25Z" fill="#E0E0E0"/>
<path d="M71.25 115.25H104V148H71.25V115.25Z" fill="#E0E0E0"/>
<path d="M89.25 156.5H116.75V184.25H89.25V156.5Z" fill="#E0E0E0"/>
<path d="M121.5 169.75H144.25V192.5H121.5V169.75Z" fill="#E0E0E0"/>
<path d="M148.25 165H167.5V184.25H148.25V165Z" fill="#E0E0E0"/>
<path d="M134 63.5H141.25V71H134V63.5Z" fill="#E0E0E0"/>
<path d="M144.25 66H152.25V73.75H144.25V66Z" fill="#E0E0E0"/>
<path d="M155.25 71H165.25V80.75H155.25V71Z" fill="#E0E0E0"/>
<path d="M171 160H180.25V169.75H171V160Z" fill="#E0E0E0"/>
<path d="M175.75 146.5H185V155.75H175.75V146.5Z" fill="#E0E0E0"/>
</svg>
